<?xml version="1.0" standalone="no"?>
<!DOCTYPE svg PUBLIC "-//W3C//DTD SVG 20010904//EN"
 "http://www.w3.org/TR/2001/REC-SVG-20010904/DTD/svg10.dtd">
<svg version="1.0" xmlns="http://www.w3.org/2000/svg"
 width="512.000000pt" height="512.000000pt" viewBox="0 0 512.000000 512.000000"
 preserveAspectRatio="xMidYMid meet">
<metadata>
Created by potrace 1.11, written by Peter Selinger 2001-2013
</metadata>
<g transform="translate(0.000000,512.000000) scale(0.100000,-0.100000)"
fill="#000000" stroke="none">
<path d="M2525 5049 c-22 -6 -381 -360 -1273 -1252 -1172 -1172 -1244 -1246
-1249 -1284 -6 -48 14 -92 56 -122 28 -20 41 -21 370 -21 l341 0 0 -1101 c0
-1238 -6 -1150 75 -1189 42 -20 53 -21 643 -18 589 3 601 3 629 24 64 47 63
35 63 611 l0 523 379 0 c339 -1 380 -2 385 -17 4 -8 6 -249 6 -534 -1 -568 -3
-544 58 -586 25 -17 64 -18 642 -18 587 0 616 1 643 19 15 10 33 28 40 40 9
16 13 289 17 1131 l5 1110 347 5 c332 5 348 6 375 26 16 12 32 36 37 57 22 85
81 21 -1209 1309 -657 656 -1214 1212 -1238 1236 -48 47 -94 63 -142 51z
m1101 -1363 c580 -579 1054 -1056 1054 -1060 0 -3 -952 -6 -2115 -6 -1163 0
-2115 3 -2115 8 0 10 2103 2112 2114 2112 4 0 483 -474 1062 -1054z m472
-2343 l2 -1023 -450 0 -450 0 0 525 c0 575 1 561 -59 604 -29 21 -38 21 -581
21 -534 0 -553 -1 -580 -20 -61 -43 -60 -37 -60 -609 l0 -521 -445 0 -445 0
-2 1021 c-2 561 -1 1023 1 1025 3 2 693 3 1535 2 l1531 -3 3 -1022z"/>
</g>
</svg>
